<svg version="1.1" xmlns="http://www.w3.org/2000/svg" xmlns:xlink="http://www.w3.org/1999/xlink" width="767" height="632"><defs><symbol viewBox="-50,-25,100,50" id="symbol-1"><path d="M-30,25c-11.04569,0 -20,-8.95431 -20,-20l0,-10c0,-11.04569 8.95431,-20 20,-20l60,0c11.04569,0 20,8.95431 20,20l0,10c0,11.04569 -8.95431,20 -20,20z" fill="#9eebcf" fill-rule="nonzero" stroke="#333333" stroke-width="2" stroke-linecap="butt" stroke-linejoin="miter" stroke-miterlimit="10" stroke-dasharray="" stroke-dashoffset="0" font-family="none" font-weight="none" font-size="none" text-anchor="none" style="mix-blend-mode: normal"/></symbol><symbol viewBox="-60,-40,120,80" id="symbol-2"><path d="M-60,0c0,-22.09139 26.86292,-40 60,-40c33.13708,0 60,17.90861 60,40c0,22.09139 -26.86292,40 -60,40c-33.13708,0 -60,-17.90861 -60,-40z" fill="#96ccff" fill-rule="nonzero" stroke="#333333" stroke-width="2" stroke-linecap="butt" stroke-linejoin="miter" stroke-miterlimit="10" stroke-dasharray="" stroke-dashoffset="0" font-family="none" font-weight="none" font-size="none" text-anchor="none" style="mix-blend-mode: normal"/></symbol></defs><g fill="none" fill-rule="nonzero" stroke="none" stroke-width="none" stroke-linecap="butt" stroke-linejoin="miter" stroke-miterlimit="10" stroke-dasharray="none" stroke-dashoffset="0" font-family="none" font-weight="none" font-size="none" text-anchor="none" style="mix-blend-mode: normal"><path d="M275,100l51,-50" fill="none" stroke="#333333" stroke-width="3" stroke-dasharray=""/><path d="M275,100l51,50" fill="none" stroke="#333333" stroke-width="3" stroke-dasharray="8,3"/><use x="25" y="75" xlink:href="#symbol-1" width="100" height="50" overflow="visible" fill="none" stroke="none" stroke-width="1" stroke-dasharray=""/><use x="325" y="25" xlink:href="#symbol-1" width="100" height="50" overflow="visible" fill="none" stroke="none" stroke-width="1" stroke-dasharray=""/><use x="325" y="125" xlink:href="#symbol-1" width="100" height="50" overflow="visible" fill="none" stroke="none" stroke-width="1" stroke-dasharray=""/><path d="M125,100l50,0" fill="none" stroke="#333333" stroke-width="3" stroke-dasharray=""/><path d="M175,150l0,-100l100,0l0,100z" fill="#00449e" stroke="#333333" stroke-width="2" stroke-dasharray=""/><path d="M425,150l40,0" fill="none" stroke="#333333" stroke-width="3" stroke-dasharray="8,3"/><path d="M425,50l40,0" fill="none" stroke="#333333" stroke-width="3" stroke-dasharray=""/><use x="465" y="10" xlink:href="#symbol-2" width="120" height="80" overflow="visible" fill="none" stroke="none" stroke-width="1" stroke-dasharray=""/><use x="465" y="110" xlink:href="#symbol-2" width="120" height="80" overflow="visible" fill="none" stroke="none" stroke-width="1" stroke-dasharray=""/><text x="75" y="105" fill="#333333" stroke="none" stroke-width="1" stroke-dasharray="" font-family="sans-serif" font-weight="normal" font-size="14" text-anchor="middle">Audio Cable</text><text x="225" y="108" fill="#fbf1a9" stroke="none" stroke-width="0" stroke-dasharray="" font-family="sans-serif" font-weight="normal" font-size="24" text-anchor="middle">VIZBOX</text><text x="375" y="55" fill="#333333" stroke="none" stroke-width="1" stroke-dasharray="" font-family="sans-serif" font-weight="normal" font-size="14" text-anchor="middle">Video Cable</text><text x="375" y="155" fill="#333333" stroke="none" stroke-width="1" stroke-dasharray="" font-family="sans-serif" font-weight="normal" font-size="14" text-anchor="middle">Audio Cable</text><text x="525" y="54" fill="#333333" stroke="none" stroke-width="1" stroke-dasharray="" font-family="sans-serif" font-weight="normal" font-size="15" text-anchor="middle">Projector</text><text x="525" y="154" fill="#333333" stroke="none" stroke-width="1" stroke-dasharray="" font-family="sans-serif" font-weight="normal" font-size="15" text-anchor="middle">Sound Board</text></g></svg>